HIERARCHY
ROOT hip
{
  OFFSET 0 0 0
  CHANNELS 6 Xposition Yposition Zposition Zrotation Yrotation Xrotation
  JOINT abdomen
  {
    OFFSET 0 20.6881 -0.73152
    CHANNELS 3 Zrotation Xrotation Yrotation
    JOINT chest
    {
      OFFSET 0 11.7043 -0.48768
      CHANNELS 3 Zrotation Xrotation Yrotation
      JOINT neck
      {
        OFFSET 0 22.1894 -2.19456
        CHANNELS 3 Zrotation Xrotation Yrotation
        JOINT head
        {
          OFFSET -0.24384 7.07133 1.2192
          CHANNELS 3 Zrotation Xrotation Yrotation
          JOINT leftEye
          {
            OFFSET 4.14528 8.04674 8.04672
            CHANNELS 3 Zrotation Xrotation Yrotation
            End Site
            {
              OFFSET 1 0 0
            }
          }
          JOINT rightEye
          {
            OFFSET -3.6576 8.04674 8.04672
            CHANNELS 3 Zrotation Xrotation Yrotation
            End Site
            {
              OFFSET 1 0 0
            }
          }
        }
      }
      JOINT rCollar
      {
        OFFSET -2.68224 19.2634 -4.8768
        CHANNELS 3 Zrotation Xrotation Yrotation
        JOINT rShldr
        {
          OFFSET -8.77824 -1.95073 1.46304
          CHANNELS 3 Zrotation Xrotation Yrotation
          JOINT rForeArm
          {
            OFFSET -28.1742 -1.7115 0.48768
            CHANNELS 3 Zrotation Xrotation Yrotation
            JOINT rHand
            {
              OFFSET -22.5879 0.773209 7.07136
              CHANNELS 3 Zrotation Xrotation Yrotation
              JOINT rThumb1
              {
                OFFSET -1.2192 -0.487915 3.41376
                CHANNELS 3 Zrotation Xrotation Yrotation
                JOINT rThumb2
                {
                  OFFSET -3.37035 -0.52449 3.41376
                  CHANNELS 3 Zrotation Xrotation Yrotation
                  End Site
                  {
                    OFFSET -1.78271 -1.18214 1.43049
                  }
                }
              }
              JOINT rIndex1
              {
                OFFSET -7.75947 0.938293 5.60832
                CHANNELS 3 Zrotation Xrotation Yrotation
                JOINT rIndex2
                {
                  OFFSET -2.54057 -0.884171 1.56538
                  CHANNELS 3 Zrotation Xrotation Yrotation
                  End Site
                  {
                    OFFSET -1.62519 -0.234802 1.16502
                  }
                }
              }
              JOINT rMid1
              {
                OFFSET -8.24714 1.18213 3.41376
                CHANNELS 3 Zrotation Xrotation Yrotation
                JOINT rMid2
                {
                  OFFSET -3.10165 -0.590103 1.0647
                  CHANNELS 3 Zrotation Xrotation Yrotation
                  End Site
                  {
                    OFFSET -2.48547 -0.328903 0.83742
                  }
                }
              }
              JOINT rRing1
              {
                OFFSET -8.82822 0.546677 1.51678
                CHANNELS 3 Zrotation Xrotation Yrotation
                JOINT rRing2
                {
                  OFFSET -2.60934 -0.819778 -0.0198488
                  CHANNELS 3 Zrotation Xrotation Yrotation
                  End Site
                  {
                    OFFSET -2.33842 -0.294052 0.168128
                  }
                }
              }
              JOINT rPinky1
              {
                OFFSET -8.27202 -0.0477905 -0.4584
                CHANNELS 3 Zrotation Xrotation Yrotation
                JOINT rPinky2
                {
                  OFFSET -1.82734 -0.647385 -0.700984
                  CHANNELS 3 Zrotation Xrotation Yrotation
                  End Site
                  {
                    OFFSET -1.69225 -0.51767 -0.607171
                  }
                }
              }
            }
          }
        }
      }
      JOINT lCollar
      {
        OFFSET 2.68224 19.2634 -4.8768
        CHANNELS 3 Zrotation Xrotation Yrotation
        JOINT lShldr
        {
          OFFSET 8.77824 -1.95073 1.46304
          CHANNELS 3 Zrotation Xrotation Yrotation
          JOINT lForeArm
          {
            OFFSET 28.1742 -1.7115 0.48768
            CHANNELS 3 Zrotation Xrotation Yrotation
            JOINT lHand
            {
              OFFSET 22.5879 0.773209 7.07136
              CHANNELS 3 Zrotation Xrotation Yrotation
              JOINT lThumb1
              {
                OFFSET 1.2192 -0.487915 3.41376
                CHANNELS 3 Zrotation Xrotation Yrotation
                JOINT lThumb2
                {
                  OFFSET 3.37035 -0.52449 3.41376
                  CHANNELS 3 Zrotation Xrotation Yrotation
                  End Site
                  {
                    OFFSET 1.78271 -1.18214 1.43049
                  }
                }
              }
              JOINT lIndex1
              {
                OFFSET 7.75947 0.938293 5.60832
                CHANNELS 3 Zrotation Xrotation Yrotation
                JOINT lIndex2
                {
                  OFFSET 2.54057 -0.884171 1.56538
                  CHANNELS 3 Zrotation Xrotation Yrotation
                  End Site
                  {
                    OFFSET 1.62519 -0.234802 1.16502
                  }
                }
              }
              JOINT lMid1
              {
                OFFSET 8.24714 1.18213 3.41376
                CHANNELS 3 Zrotation Xrotation Yrotation
                JOINT lMid2
                {
                  OFFSET 3.10165 -0.590103 1.0647
                  CHANNELS 3 Zrotation Xrotation Yrotation
                  End Site
                  {
                    OFFSET 2.48547 -0.328903 0.83742
                  }
                }
              }
              JOINT lRing1
              {
                OFFSET 8.82822 0.546677 1.51678
                CHANNELS 3 Zrotation Xrotation Yrotation
                JOINT lRing2
                {
                  OFFSET 2.60934 -0.819778 -0.0198488
                  CHANNELS 3 Zrotation Xrotation Yrotation
                  End Site
                  {
                    OFFSET 2.33842 -0.294052 0.168128
                  }
                }
              }
              JOINT lPinky1
              {
                OFFSET 8.27202 -0.0477905 -0.4584
                CHANNELS 3 Zrotation Xrotation Yrotation
                JOINT lPinky2
                {
                  OFFSET 1.82734 -0.647385 -0.700984
                  CHANNELS 3 Zrotation Xrotation Yrotation
                  End Site
                  {
                    OFFSET 1.69225 -0.51767 -0.607171
                  }
                }
              }
            }
          }
        }
      }
    }
  }
  JOINT rButtock
  {
    OFFSET -8.77824 4.35084 1.2192
    CHANNELS 3 Zrotation Xrotation Yrotation
    JOINT rThigh
    {
      OFFSET 0 -1.70687 -2.19456
      CHANNELS 3 Zrotation Xrotation Yrotation
      JOINT rShin
      {
        OFFSET 0 -36.8199 0.73152
        CHANNELS 3 Zrotation Xrotation Yrotation
        JOINT rFoot
        {
          OFFSET 0.73152 -45.1104 -5.12064
          CHANNELS 3 Zrotation Xrotation Yrotation
          End Site
          {
            OFFSET -1.1221 -3.69964 12.103
          }
        }
      }
    }
  }
  JOINT lButtock
  {
    OFFSET 8.77824 4.35084 1.2192
    CHANNELS 3 Zrotation Xrotation Yrotation
    JOINT lThigh
    {
      OFFSET 0 -1.70687 -2.19456
      CHANNELS 3 Zrotation Xrotation Yrotation
      JOINT lShin
      {
        OFFSET 0 -36.8199 0.73152
        CHANNELS 3 Zrotation Xrotation Yrotation
        JOINT lFoot
        {
          OFFSET -0.73152 -45.1104 -5.12064
          CHANNELS 3 Zrotation Xrotation Yrotation
          End Site
          {
            OFFSET 1.1221 -3.69964 12.103
          }
        }
      }
    }
  }
}
MOTION
Frames:	6
Frame Time:	0.00833333
-0.017927768 0.543113 -0.7130899 6.4208994 14.7739 13.546399 -5.0711093 9.87395 -11.596799 7.4231696 -9.856869 -2.62206 -3.0013597 12.153599 -2.7303398 1.4957999 -28.9942 -4.8769894 -0.0 0.0 0.0 -0.0 0.0 0.0 -2.2073799e-13 5.5666697e-14 -4.62771e-13 56.109497 40.7191 15.243598 -22.2603 -51.366398 108.39499 -5.3041496 -52.786697 -10.664999 5.7725497e-10 -7.0417994e-10 8.4405893e-10 9.59081e-10 -1.3772798e-09 1.4820499e-09 5.77253e-10 -7.0417794e-10 8.44052e-10 7.73091 5.47488 0.41731396 5.7725497e-10 -7.041229e-10 8.4405594e-10 2.90554 0.96518296 0.102901995 5.77262e-10 -7.0417494e-10 8.4405594e-10 10.278599 0.7318009 0.0259123 5.77252e-10 -7.0417194e-10 8.4406193e-10 2.22167 -0.733487 -0.20891999 -2.2077698e-13 5.5652297e-14 -4.6311896e-13 -20.875498 15.493199 -78.488594 23.607199 -18.380999 -48.389896 0.44235596 18.566797 -2.7057397 2.7047597e-09 -7.1551796e-09 4.17585e-10 4.67493e-09 -1.23256e-08 6.8228695e-10 2.7047498e-09 -7.1551693e-09 4.176e-10 -7.73091 5.47488 -0.41731396 2.7047597e-09 -7.1551796e-09 4.1759096e-10 -2.90554 0.96518296 -0.102901995 2.7047597e-09 -7.1551796e-09 4.1758097e-10 -10.278599 0.7318009 -0.0259123 2.7047697e-09 -7.1551796e-09 4.1756898e-10 -2.22167 -0.733487 0.20891999 -2.0321698e-16 0.0 -3.8825097e-19 -60.1822 -55.481094 -65.5102 -4.3856497 78.63249 4.77626 -5.02063 -8.22123 -14.264099 2.0321698e-16 0.0 3.8825097e-19 11.998099 6.2160096 6.1160693 0.16253899 51.845695 -3.3614798 2.3237698 -8.60418 24.666098
-0.012056969 0.543186 -0.73085976 7.2519 17.564598 14.141199 -5.6798997 8.48265 -11.2719 7.318489 -10.2406 -2.5452597 -3.7589197 13.0803 -3.7026896 1.49452 -28.402199 -6.8273497 -0.0 0.0 0.0 -0.0 0.0 0.0 -2.3144697e-13 1.7394098e-13 -7.376149e-14 48.894497 31.794197 24.106298 -22.089098 -51.0477 108.870995 -3.8988698 -47.619698 -8.848149 -7.3466294e-10 -1.3939999e-09 1.7539399e-10 -1.2784899e-09 -2.4283497e-09 2.7757396e-10 -7.3465395e-10 -1.3939899e-09 1.75383e-10 7.73091 5.47488 0.41731396 -7.3466294e-10 -1.3939699e-09 1.7539098e-10 2.90554 0.96518296 0.102901995 -7.3465695e-10 -1.3939999e-09 1.7539399e-10 10.278599 0.7318009 0.0259123 -7.3466694e-10 -1.3939999e-09 1.7540099e-10 2.22167 -0.733487 -0.20891999 -2.31423e-13 1.7393298e-13 -7.4069e-14 -20.256498 24.772198 -78.1471 26.043098 -23.616798 -56.208897 0.123718984 11.096499 -1.5596099 1.5646598e-09 -4.16328e-09 4.7697896e-10 2.7072298e-09 -7.1772495e-09 8.0078694e-10 1.5646499e-09 -4.1632897e-09 4.77001e-10 -7.73091 5.47488 -0.41731396 1.5646598e-09 -4.1632897e-09 4.76981e-10 -2.90554 0.96518296 -0.102901995 1.5646598e-09 -4.1632897e-09 4.7697996e-10 -10.278599 0.7318009 -0.0259123 1.5646698e-09 -4.16328e-09 4.76974e-10 -2.22167 -0.733487 0.20891999 -2.0321698e-16 0.0 -3.8825097e-19 -64.47019 -53.870094 -68.95239 -4.2177196 78.3941 4.71399 -4.6459 -7.0334897 -14.067699 2.0321698e-16 0.0 3.8825097e-19 12.242199 9.153719 4.81369 -0.013826399 43.7698 -3.1072898 0.24857499 -4.9314194 22.0013
-0.0056175706 0.54330397 -0.7502898 8.6534 19.659899 14.9773 -6.4955897 7.18695 -10.559699 7.1435094 -10.631199 -2.3633497 -4.5278397 13.9293995 -4.6580696 1.3903499 -27.788298 -8.749999 -0.0 0.0 0.0 -0.0 0.0 0.0 -1.5368998e-13 1.6061799e-13 3.5791197e-13 43.921696 21.511698 32.3043 -23.824799 -49.618996 103.83399 -3.1708798 -44.080296 -7.822219 -1.5750798e-09 -2.17894e-09 -4.4545295e-10 -2.7037397e-09 -3.7236998e-09 -8.2651097e-10 -1.5750599e-09 -2.1789297e-09 -4.4546797e-10 7.73091 5.47488 0.41731396 -1.5750798e-09 -2.1789497e-09 -4.4545598e-10 2.90554 0.96518296 0.102901995 -1.5750699e-09 -2.1789497e-09 -4.4545195e-10 10.278599 0.7318009 0.0259123 -1.5750798e-09 -2.1789497e-09 -4.4544296e-10 2.22167 -0.733487 -0.20891999 -1.5364099e-13 1.6061799e-13 3.5766298e-13 -20.174398 35.7983 -77.21859 27.520699 -28.266098 -64.4875 0.00033024396 0.5189 -0.0729287 4.3996898e-10 -2.5363597e-10 1.30918e-09 7.5862494e-10 -4.3222798e-10 2.2603899e-09 4.3996495e-10 -2.5366398e-10 1.3092e-09 -7.73091 5.47488 -0.41731396 4.3996898e-10 -2.5366798e-10 1.30918e-09 -2.90554 0.96518296 -0.102901995 4.3996395e-10 -2.5366698e-10 1.30918e-09 -10.278599 0.7318009 -0.0259123 4.3997495e-10 -2.53638e-10 1.30918e-09 -2.22167 -0.733487 0.20891999 -2.0321698e-16 0.0 -3.8825097e-19 -68.45059 -52.822098 -71.36939 -4.00495 78.03209 4.59756 -4.2359395 -5.6594195 -13.967099 2.0321698e-16 0.0 3.8825097e-19 11.786699 11.515 4.12317 -0.12307298 36.338295 -2.9063 -1.0961798 -2.2273598 20.0738
0.00039427905 0.542806 -0.7701499 10.475699 20.671598 15.985898 -7.8445597 6.1441793 -9.339099 6.8155994 -10.9543 -2.0444098 -5.0987697 14.164799 -5.4596395 1.05038 -26.764599 -10.3972 -0.0 0.0 0.0 -0.0 0.0 0.0 1.1535899e-13 -2.8386698e-13 6.4653193e-13 41.027397 12.3129 40.175198 -26.626099 -44.816597 94.12909 -3.994 -47.468998 -8.882379 1.52598e-10 -1.15654986e-10 3.33228e-10 2.4470898e-10 -2.2564499e-10 5.7616495e-10 1.5260898e-10 -1.1564899e-10 3.3321298e-10 7.73091 5.47488 0.41731396 1.5259699e-10 -1.15662986e-10 3.3322198e-10 2.90554 0.96518296 0.102901995 1.526e-10 -1.15659995e-10 3.3322498e-10 10.278599 0.7318009 0.0259123 1.52589e-10 -1.1565699e-10 3.3323497e-10 2.22167 -0.733487 -0.20891999 1.1520399e-13 -2.83863e-13 6.4624e-13 -20.9162 48.093998 -74.4524 28.467897 -33.193996 -71.8357 0.0936508 -11.093599 1.5651798 1.1023399e-09 5.0737494e-09 3.73263e-09 1.8521699e-09 8.890779e-09 6.4610695e-09 1.1023299e-09 5.07372e-09 3.73264e-09 -7.73091 5.47488 -0.41731396 1.1023399e-09 5.0737294e-09 3.73263e-09 -2.90554 0.96518296 -0.102901995 1.1023299e-09 5.0737294e-09 3.73263e-09 -10.278599 0.7318009 -0.0259123 1.1023399e-09 5.0737494e-09 3.73263e-09 -2.22167 -0.733487 0.20891999 -2.0321698e-16 0.0 -3.8825097e-19 -72.74759 -53.000996 -72.90869 -3.84113 77.6706 4.46504 -3.7637396 -3.96819 -13.936899 2.0321698e-16 0.0 3.8825097e-19 10.0981 13.462499 4.3179493 -0.21064198 30.091599 -2.7147498 -1.04226 -2.9266498 19.9945
0.0053873495 0.541435 -0.7892997 12.175699 20.567799 16.9544 -9.32427 5.4045897 -7.864679 6.27476 -11.2189 -1.6744499 -5.4717197 14.0426 -6.1985297 0.82260597 -25.884998 -11.8824 -0.0 0.0 0.0 -0.0 0.0 0.0 3.7626098e-13 -6.758709e-13 7.2382497e-13 39.3902 4.09028 48.017296 -28.211899 -39.0967 82.317696 -3.9717095 -47.859997 -8.935439 1.8485498e-09 1.88198e-09 1.25132e-09 3.1367497e-09 3.1436598e-09 2.22228e-09 1.8485498e-09 1.88198e-09 1.2513e-09 7.73091 5.47488 0.41731396 1.8485498e-09 1.88198e-09 1.2513098e-09 2.90554 0.96518296 0.102901995 1.8485498e-09 1.88198e-09 1.2513098e-09 10.278599 0.7318009 0.0259123 1.8485399e-09 1.8819897e-09 1.25132e-09 2.22167 -0.733487 -0.20891999 3.7591498e-13 -6.7586697e-13 7.2347694e-13 -26.310398 60.687695 -65.8752 28.398098 -37.053097 -78.78579 0.661129 -22.454298 3.3297598 1.9046198e-09 8.832749e-09 5.3905094e-09 3.1998597e-09 1.54866e-08 9.332829e-09 1.9046098e-09 8.8327194e-09 5.3904996e-09 -7.73091 5.47488 -0.41731396 1.9046198e-09 8.832739e-09 5.3904996e-09 -2.90554 0.96518296 -0.102901995 1.9046098e-09 8.832739e-09 5.3904996e-09 -10.278599 0.7318009 -0.0259123 1.9046198e-09 8.832739e-09 5.39049e-09 -2.22167 -0.733487 0.20891999 -2.0321698e-16 0.0 -3.8825097e-19 -76.96349 -53.927197 -73.9984 -3.68439 77.27549 4.32404 -3.2556798 -2.2591698 -13.738199 2.0321698e-16 0.0 3.8825097e-19 7.7151294 15.129799 5.0685096 -0.25966498 24.532799 -2.5328 -0.5224189 -4.7678494 21.307098
0.009290001 0.538958 -0.80764973 13.404999 19.817198 17.713198 -10.690899 5.02237 -6.3941097 5.2941895 -11.376499 -1.3540899 -5.3727894 13.479099 -6.8672595 0.9250199 -25.626598 -13.149799 -0.0 0.0 0.0 -0.0 0.0 0.0 4.0201197e-13 -4.5203297e-13 2.61237e-13 38.007496 -2.4518297 56.415997 -28.708899 -31.233498 64.828094 -1.6637099 -34.675396 -5.4144397 8.8280794e-10 1.80941e-09 1.4605999e-09 1.4871498e-09 3.0418899e-09 2.5588598e-09 8.82816e-10 1.8094198e-09 1.4605699e-09 7.73091 5.47488 0.41731396 8.8280994e-10 1.8094198e-09 1.4605899e-09 2.90554 0.96518296 0.102901995 8.828149e-10 1.8094198e-09 1.4605899e-09 10.278599 0.7318009 0.0259123 8.8280094e-10 1.80941e-09 1.4605999e-09 2.22167 -0.733487 -0.20891999 4.0174496e-13 -4.5204097e-13 2.60877e-13 -48.683994 71.356995 -39.147594 28.138899 -38.999096 -82.6185 1.3729899 -31.032099 4.85564 1.5800898e-09 7.062859e-09 3.0803797e-09 2.6795597e-09 1.2353199e-08 5.34188e-09 1.5800898e-09 7.0628396e-09 3.0803797e-09 -7.73091 5.47488 -0.41731396 1.5800898e-09 7.0628396e-09 3.0803797e-09 -2.90554 0.96518296 -0.102901995 1.5800798e-09 7.062859e-09 3.0803697e-09 -10.278599 0.7318009 -0.0259123 1.5800898e-09 7.062849e-09 3.0803597e-09 -2.22167 -0.733487 0.20891999 -2.0321698e-16 0.0 -3.8825097e-19 -80.786194 -55.571198 -74.987495 -3.5133297 76.84979 4.19533 -2.7483 -0.74220693 -13.082699 2.0321698e-16 0.0 3.8825097e-19 4.7886696 16.999998 6.3996797 -0.25538796 18.7356 -2.35323 -0.119647995 -6.0221295 24.4424
